<svg width="48" height="48" viewBox="0 0 48 48" fill="none" xmlns="http://www.w3.org/2000/svg">
<path d="M40 4H8C4.7 4 2 6.7 2 10V18C2 21.3 4.7 24 8 24H10V38C10 41.3 12.7 44 16 44H32C35.3 44 38 41.3 38 38V24H40C43.3 24 46 21.3 46 18V10C46 6.7 43.3 4 40 4ZM34 38C34 39.1 33.1 40 32 40H16C14.9 40 14 39.1 14 38V16H34V38ZM42 18C42 19.1 41.1 20 40 20H38V16C39.1 16 40 15.1 40 14C40 12.9 39.1 12 38 12H10C8.9 12 8 12.9 8 14C8 15.1 8.9 16 10 16V20H8C6.9 20 6 19.1 6 18V10C6 8.9 6.9 8 8 8H40C41.1 8 42 8.9 42 10V18ZM24 20C19.58 20 16 23.58 16 28C16 32.42 19.58 36 24 36C28.42 36 32 32.42 32 28C32 23.58 28.42 20 24 20ZM24 32C21.8 32 20 30.2 20 28C20 25.8 21.8 24 24 24C26.2 24 28 25.8 28 28C28 30.2 26.2 32 24 32Z" fill="white"/>
</svg>
