<svg width="24" height="24" viewBox="0 0 24 24" fill="none" xmlns="http://www.w3.org/2000/svg">
<path d="M12 22C6.49 22 2 17.51 2 12C2 6.49 6.49 2 12 2C17.51 2 22 6.49 22 12C22 17.51 17.51 22 12 22ZM12 4C7.59 4 4 7.59 4 12C4 16.41 7.59 20 12 20C16.41 20 20 16.41 20 12C20 7.59 16.41 4 12 4ZM15.83 14.55C16.14 14.09 16.01 13.47 15.55 13.16L13 11.46V7C13 6.45 12.55 6 12 6C11.45 6 11 6.45 11 7V12C11 12.33 11.17 12.65 11.45 12.83L14.45 14.83C14.91 15.14 15.53 15.01 15.83 14.55Z" fill="white"/>
</svg>
