<svg xmlns="http://www.w3.org/2000/svg" width="108" height="24" fill="currentColor" viewBox="0 0 108 24">
  <path fill-rule="evenodd" d="M1.075.5a.575.575 0 00-.575.575v3.452c0 .318.258.575.575.575h13.933c.264 0 .494-.18.558-.436l.863-3.451A.575.575 0 0015.87.5H1.075zm3.452 23.01H1.075a.575.575 0 01-.575-.575V10.28c0-.318.258-.576.575-.576H13.57c.374 0 .649.352.558.715l-.863 3.452a.575.575 0 01-.558.435h-7.03a.575.575 0 00-.575.576v8.054a.575.575 0 01-.575.575zM25.237.5c.317 0 .575.258.575.575v21.86a.575.575 0 01-.575.576h-3.452a.575.575 0 01-.575-.575V1.076c0-.318.257-.576.575-.576h3.452z" clip-rule="evenodd"/>
  <path d="M48.248.5h3.451c.318 0 .576.258.576.575v21.86a.575.575 0 01-.576.576h-2.273a1.15 1.15 0 01-.893-.425L37.829 9.91a.288.288 0 00-.511.182v12.843a.575.575 0 01-.575.575H33.29a.575.575 0 01-.575-.575V1.076c0-.318.257-.576.575-.576h2.273c.346 0 .674.156.893.425L47.162 14.1c.17.21.51.09.51-.181V1.075c0-.317.258-.575.576-.575zM79.887 12.005c0 6.355-5.151 11.506-11.505 11.506-6.355 0-11.506-5.151-11.506-11.506C56.876 5.651 62.028.5 68.382.5s11.505 5.151 11.505 11.505zm-18.433 0a6.928 6.928 0 1013.856 0 6.928 6.928 0 00-13.856 0zM106.925 23.51h-3.452a.575.575 0 01-.575-.575V10.515a.288.288 0 00-.517-.174l-5.699 7.52a.863.863 0 01-1.375 0l-5.699-7.52a.288.288 0 00-.517.174v12.422a.575.575 0 01-.575.575h-3.452a.575.575 0 01-.575-.575V1.087c0-.317.256-.574.573-.575l2.574-.01c.181-.002.352.083.461.227l7.668 10.118a.288.288 0 00.459 0L103.876.75a.575.575 0 01.458-.228h2.591c.317 0 .575.258.575.575v21.838a.575.575 0 01-.575.575z"/>
</svg>
