<svg width="24" height="24" viewBox="0 0 24 24" fill="none" xmlns="http://www.w3.org/2000/svg">
<path fill-rule="evenodd" clip-rule="evenodd" d="M12.5556 4.1H4.11111L4.11111 17.75H12.5556V4.1ZM4.11111 2C2.94518 2 2 2.9402 2 4.1V17.75C2 18.9098 2.94518 19.85 4.11111 19.85H12.5556C13.7215 19.85 14.6667 18.9098 14.6667 17.75V4.1C14.6667 2.9402 13.7215 2 12.5556 2H4.11111Z" fill="#FF5762"/>
<path fill-rule="evenodd" clip-rule="evenodd" d="M9.76559 22.8891C9.51258 22.8036 9.28112 22.6718 9.08147 22.5037C8.99163 22.4281 8.90824 22.3452 8.83222 22.2558C8.66326 22.0572 8.53072 21.827 8.44486 21.5753C8.41548 21.4892 8.39156 21.4006 8.37352 21.3098C8.34715 21.1773 8.33333 21.0402 8.33333 20.9V17.9469C9.49927 17.9469 10.4444 18.8871 10.4444 20.0469V20.9H11.5C12.6659 20.9 13.6111 21.8402 13.6111 23H10.4444C10.3035 23 10.1657 22.9863 10.0324 22.96C9.94124 22.9421 9.85215 22.9183 9.76559 22.8891ZM21 11.1219C19.8341 11.1219 18.8889 12.0621 18.8889 13.2219V14.9281C18.8889 16.0879 19.8341 17.0281 21 17.0281V11.1219ZM8.33333 10.2031C9.49927 10.2031 10.4444 9.26292 10.4444 8.10312V7.25H11.5C12.6659 7.25 13.6111 6.3098 13.6111 5.15H10.4444C10.3035 5.15 10.1657 5.16375 10.0324 5.18997C9.94124 5.20792 9.85215 5.23171 9.76558 5.26093C9.51258 5.34635 9.28112 5.47819 9.08147 5.64626C8.99164 5.72188 8.90824 5.80484 8.83222 5.8942C8.66326 6.0928 8.53072 6.32304 8.44485 6.57471C8.41547 6.66082 8.39156 6.74944 8.37352 6.84016C8.34716 6.97271 8.33333 7.10975 8.33333 7.25V10.2031ZM8.33333 11.1219C9.49927 11.1219 10.4444 12.0621 10.4444 13.2219V14.9281C10.4444 16.0879 9.49927 17.0281 8.33333 17.0281V11.1219ZM15.7222 5.15C15.7222 6.3098 16.6674 7.25 17.8333 7.25H18.8889V8.10312C18.8889 9.26292 19.8341 10.2031 21 10.2031V7.25C21 7.10975 20.9862 6.97271 20.9598 6.84016C20.9418 6.74944 20.9179 6.66082 20.8885 6.57471C20.8026 6.32304 20.6701 6.0928 20.5011 5.8942C20.4251 5.80484 20.3417 5.72188 20.2519 5.64626C20.0522 5.47819 19.8208 5.34635 19.5678 5.26094C19.4812 5.23171 19.3921 5.20792 19.3009 5.18997C19.1676 5.16375 19.0299 5.15 18.8889 5.15H15.7222ZM21 17.9469C19.8341 17.9469 18.8889 18.8871 18.8889 20.0469V20.9H17.8333C16.6674 20.9 15.7222 21.8402 15.7222 23H18.8889C19.0299 23 19.1676 22.9863 19.3009 22.96C19.3921 22.9421 19.4812 22.9183 19.5677 22.8891C19.8208 22.8036 20.0522 22.6718 20.2519 22.5037C20.3417 22.4281 20.4251 22.3452 20.5011 22.2558C20.6701 22.0572 20.8026 21.827 20.8885 21.5753C20.9179 21.4892 20.9418 21.4006 20.9598 21.3098C20.9862 21.1773 21 21.0402 21 20.9V17.9469Z" fill="#FF5762"/>
</svg>
