<svg width="24" height="24" viewBox="0 0 24 24" fill="none" xmlns="http://www.w3.org/2000/svg">
<path d="M21 2H17C14.24 2 12.02 3.24 10.05 6.01C10.04 6.01 10.02 6 10 6H6.35C5.12 6 4.03 6.74 3.57 7.89L2.07 11.63C1.95 11.94 1.98 12.29 2.17 12.56C2.36 12.83 2.67 13 3 13H6.64C6.44 13.54 6.25 14.1 6.05 14.68C5.93 15.04 6.02 15.44 6.29 15.7L8.29 17.7C8.48 17.9 8.74 18 9 18C9.19 18 9.28 17.99 11 17.36V21C11 21.33 11.16 21.64 11.44 21.83C11.72 22.02 12.07 22.05 12.37 21.93L16.11 20.43C17.26 19.97 18 18.88 18 17.64V14C18 13.98 17.99 13.96 17.99 13.95C20.76 11.98 22 9.76 22 7V3C22 2.45 21.55 2 21 2ZM4.48 11L5.43 8.63C5.58 8.25 5.94 8 6.35 8H8.83C8.35 8.89 7.88 9.89 7.42 11H4.48ZM16 17.65C16 18.06 15.75 18.43 15.37 18.58L13 19.52V16.58C14.11 16.12 15.11 15.65 16 15.17V17.65ZM20 7C20 9.69 18.68 12.62 9.27 15.85L8.15 14.73C11.38 5.32 14.31 4 17 4H20V7ZM17 6C17.55 6 18 6.45 18 7C18 7.55 17.55 8 17 8C16.45 8 16 7.55 16 7C16 6.45 16.45 6 17 6Z" fill="white"/>
</svg>
